<svg height="140" preserveAspectRatio="xMidYMid meet" viewBox="0 0 140 140" width="140" xmlns="http://www.w3.org/2000/svg"><path d="m140 0v92.38c0 26.3-21.32 47.62-47.62 47.62-12.32 0-43.11 0-92.38 0 0-48.23 0-78.38 0-90.44 0-27.37 22.19-49.56 49.56-49.56z" fill="#8e2bae"/><path d="m78.48 20c3.6 0 6.52 2.91 6.52 6.51v16.97c0 3.6-2.92 6.52-6.52 6.52-4.7 0-12.27 0-16.97 0-3.6 0-6.51-2.92-6.51-6.52 0-4.7 0-12.27 0-16.97 0-3.6 2.91-6.51 6.51-6.51z" fill="#fff" opacity=".75"/><path d="m93.97 52c3.33 0 6.03 2.7 6.03 6.03v47.94c0 3.33-2.7 6.03-6.03 6.03-10.8 0-37.15 0-47.94 0-3.33 0-6.03-2.7-6.03-6.03 0-10.79 0-37.14 0-47.94 0-3.33 2.7-6.03 6.03-6.03z" fill="#fff" opacity=".5"/><g fill="none" stroke="#8e2bae" stroke-width="2"><path d="m40 72.39 19.59-.39h10.02 12.33 11.52 6.54"/><path d="m40 92.39 20.34-.39h9.26 11.39 19.01"/></g></svg>